<?xml version="1.0" encoding="iso-8859-1"?>
<!-- Uploaded to: SVG Repo, www.svgrepo.com, Generator: SVG Repo Mixer Tools -->
<svg fill="#000000" version="1.1" id="Layer_1" xmlns="http://www.w3.org/2000/svg" xmlns:xlink="http://www.w3.org/1999/xlink" 
	 viewBox="0 0 512 512" xml:space="preserve">
<g>
	<g>
		
			<rect x="254.569" y="169.997" transform="matrix(0.7071 -0.7071 0.7071 0.7071 -34.4157 272.6329)" width="114.641" height="15.726"/>
	</g>
</g>
<g>
	<g>
		<polygon points="320.127,331.394 320.127,437.281 335.853,437.281 335.853,347.12 385.128,347.12 385.128,437.281 
			400.853,437.281 400.853,331.394 		"/>
	</g>
</g>
<g>
	<g>
		<rect x="344.239" y="388.009" width="16.774" height="15.726"/>
	</g>
</g>
<g>
	<g>
		<path d="M356.35,100.969c-16.796-16.796-39.127-26.046-62.88-26.046s-46.084,9.25-62.88,26.046
			c-34.672,34.672-34.672,91.089,0,125.762c17.338,17.337,40.105,26.003,62.88,26.003c22.769,0,45.545-8.67,62.88-26.003
			C391.023,192.058,391.023,135.641,356.35,100.969z M351.579,185.667v22.669c-1.936,2.526-4.038,4.963-6.349,7.274
			c-28.54,28.541-74.981,28.541-103.521,0c-28.54-28.54-28.54-74.981,0.001-103.521c13.826-13.826,32.208-21.441,51.76-21.441
			s37.935,7.614,51.76,21.441c19.876,19.876,25.893,48.43,18.085,73.578H351.579z"/>
	</g>
</g>
<g>
	<g>
		<path d="M500.88,280.694L512,269.573L406.71,164.282c0.001-0.144,0.005-0.287,0.005-0.432c0-30.249-11.78-58.688-33.169-80.077
			c-21.389-21.388-49.828-33.169-80.076-33.169c-30.249,0-58.687,11.78-80.076,33.169c-36.251,36.252-42.731,91.165-19.457,134.098
			l-20.495,20.496l45.513,45.512l20.448-20.447V445.67h-16.774v15.726h275.727V445.67h-17.823V260.345L500.88,280.694z
			 M218.953,261.639l-23.273-23.272l6.925-6.925c3.245,4.356,6.837,8.533,10.788,12.485c3.929,3.929,8.1,7.532,12.474,10.798
			L218.953,261.639z M239.4,245.043c-5.294-3.541-10.281-7.63-14.887-12.237c-38.023-38.023-38.023-99.89,0-137.913
			c18.419-18.419,42.909-28.563,68.956-28.563c26.048,0,50.538,10.144,68.957,28.563c38.023,38.023,38.023,99.89,0,137.913
			c-18.419,18.419-42.909,28.563-68.957,28.563c-13.401,0-26.381-2.704-38.343-7.82L239.4,245.043z M464.805,445.669H255.127v-175.2
			c12.137,4.356,25.065,6.627,38.343,6.627c30.249,0,58.688-11.78,80.076-33.169c16.406-16.406,27.15-36.962,31.269-59.298
			l59.99,59.99V445.669z"/>
	</g>
</g>
<g>
	<g>
		<path d="M196.197,272.93L29.968,439.159c-1.577,1.578-3.674,2.446-5.904,2.446c-2.23,0-4.327-0.868-5.905-2.446
			c-3.255-3.255-3.255-8.552,0-11.808l166.229-166.229l-11.119-11.12L7.04,416.232c-9.386,9.387-9.386,24.661,0,34.049
			c4.547,4.547,10.593,7.052,17.024,7.052c6.431,0,12.476-2.505,17.024-7.052l166.229-166.23L196.197,272.93z"/>
	</g>
</g>
<g>
	<g>
		
			<rect x="251.802" y="129.457" transform="matrix(0.7071 -0.7071 0.7071 0.7071 -19.9913 226.3762)" width="22.927" height="15.726"/>
	</g>
</g>
<g>
	<g>
		
			<rect x="244.231" y="143.643" transform="matrix(0.7071 -0.7071 0.7071 0.7071 -24.6846 243.4189)" width="74.519" height="15.726"/>
	</g>
</g>
</svg>